<svg width="10" height="207" viewBox="0 0 10 207" fill="none" xmlns="http://www.w3.org/2000/svg">
<path d="M4.62109 0.361679L4.62109 206.232H5.62109L5.62109 0.361679H4.62109Z" fill="white"/>
<path d="M2.19471 101.864L0 103.299L2.19471 104.734C2.65632 105.036 3.27319 104.978 3.66765 104.596L4.9979 103.303L3.66765 102.011C3.27319 101.629 2.65632 101.57 2.19471 101.872V101.864Z" fill="white"/>
<path d="M7.80514 104.73L9.99986 103.295L7.80514 101.86C7.34354 101.557 6.72667 101.616 6.33221 101.998L5.00195 103.291L6.33221 104.583C6.72667 104.965 7.34354 105.024 7.80514 104.721V104.73Z" fill="white"/>
<path d="M2.62671 108.465L4.7291 110.509L3.63384 111.57C3.38206 111.814 3.41563 112.154 3.70938 112.368C4.24232 112.758 4.99767 112.384 4.99767 111.73C4.99767 112.384 5.75302 112.758 6.28596 112.368C6.57971 112.154 6.61328 111.809 6.3615 111.57L5.26624 110.509L7.36863 108.465C7.90996 107.94 7.96871 107.11 7.50711 106.518L4.99767 103.299L2.48823 106.518C2.02662 107.11 2.08537 107.94 2.62671 108.465Z" fill="white"/>
<path d="M4.99767 94.856C4.99767 94.1552 4.14161 93.8027 3.63384 94.2937C3.38206 94.5371 3.41563 94.877 3.70938 95.091L4.87178 95.947L2.62671 98.1292C2.08537 98.6537 2.02662 99.4846 2.48823 100.076L4.99767 103.295L7.50711 100.076C7.96871 99.4846 7.90996 98.6537 7.36863 98.1292L5.12356 95.947L6.28596 95.091C6.57971 94.877 6.61328 94.5329 6.3615 94.2937C5.85373 93.8027 4.99767 94.1552 4.99767 94.856Z" fill="white"/>
<path d="M3.62115 76.215L2.54688 76.92L3.62115 77.625C3.84776 77.7719 4.1499 77.7467 4.34293 77.5579L4.99757 76.9242L4.34293 76.2906C4.1499 76.1017 3.84776 76.0724 3.62115 76.2234V76.215Z" fill="white"/>
<path d="M6.37446 77.6209L7.44874 76.9159L6.37446 76.2109C6.14786 76.0641 5.84572 76.0892 5.65268 76.2781L4.99805 76.9117L5.65268 77.5454C5.84572 77.7342 6.14786 77.7636 6.37446 77.6125V77.6209Z" fill="white"/>
<path d="M3.8347 74.3811C3.57033 74.6371 3.54095 75.0483 3.76756 75.3379L4.9971 76.9199L6.22664 75.3379C6.45325 75.0483 6.42387 74.6413 6.1595 74.3811L4.9971 73.2481L3.8347 74.3811Z" fill="white"/>
<path d="M3.8347 79.4549L4.9971 80.5879L6.1595 79.4549C6.42387 79.1989 6.45325 78.7876 6.22664 78.4981L4.9971 76.916L3.76756 78.4981C3.54095 78.7876 3.57033 79.1947 3.8347 79.4549Z" fill="white"/>
<path d="M3.62115 128.968L2.54688 129.673L3.62115 130.378C3.84776 130.525 4.1499 130.5 4.34293 130.311L4.99757 129.677L4.34293 129.044C4.1499 128.855 3.84776 128.825 3.62115 128.976V128.968Z" fill="white"/>
<path d="M6.37446 130.374L7.44874 129.669L6.37446 128.964C6.14786 128.817 5.84572 128.842 5.65268 129.031L4.99805 129.665L5.65268 130.298C5.84572 130.487 6.14786 130.517 6.37446 130.365V130.374Z" fill="white"/>
<path d="M3.76756 128.091L4.9971 129.673L6.22664 128.091C6.45325 127.801 6.42387 127.394 6.1595 127.134L4.9971 126.001L3.8347 127.134C3.57033 127.39 3.54095 127.801 3.76756 128.091Z" fill="white"/>
<path d="M3.8347 132.208L4.9971 133.341L6.1595 132.208C6.42387 131.952 6.45325 131.541 6.22664 131.251L4.9971 129.669L3.76756 131.251C3.54095 131.541 3.57033 131.948 3.8347 132.208Z" fill="white"/>
</svg>
