<svg width="108" height="91" viewBox="0 0 108 91" fill="none" xmlns="http://www.w3.org/2000/svg">
<g clip-path="url(#clip0_367_436)">
<path d="M107.773 48.2968C107.576 49.0629 107.125 49.6596 106.514 50.1444C106.188 50.4054 105.761 50.524 105.388 50.4698C105.307 50.0969 105.364 49.7308 105.653 48.846C105.463 48.8697 105.296 48.8799 105.134 48.9138C103.468 49.246 101.84 49.7138 100.242 50.2833C96.6699 51.558 93.2437 53.1649 89.8582 54.8632C87.5278 56.0328 85.2312 57.2701 82.9109 58.4668C82.626 58.6126 82.4055 58.8533 82.2834 59.1482C81.3268 61.4805 80.3973 63.8264 79.383 66.135C77.3544 70.759 75.0748 75.2609 72.5171 79.6171C71.2721 81.7392 69.7965 83.7088 68.0224 85.4343C65.8479 87.5497 63.3038 89.0243 60.3627 89.7939C59.8674 89.9227 59.3552 89.9973 58.8531 90.0956H57.2215C57.174 90.0719 57.1299 90.0414 57.079 90.0312C55.929 89.821 55.2065 89.1159 54.7621 88.0718C54.5077 87.4717 54.4636 86.8378 54.4093 86.2039C54.2736 84.6648 54.6027 83.2003 55.2167 81.8104C56.1665 79.6544 57.3707 77.6475 58.8158 75.7796C60.4577 73.6608 62.2182 71.6506 64.1111 69.7589C65.3764 68.4911 66.7299 67.3147 68.1106 66.1689C70.8006 63.9349 73.6874 61.9789 76.6387 60.1144C78.1414 59.1652 79.6713 58.2566 81.1945 57.3346C81.4116 57.2024 81.5608 57.0464 81.6592 56.8023C82.8838 53.8462 84.1186 50.8935 85.3533 47.9408C85.5297 47.5171 85.7333 47.1069 85.8724 46.6425C85.7808 46.7204 85.6858 46.7916 85.5976 46.8764C83.6165 48.7782 81.571 50.6054 79.3728 52.2495C76.313 54.5378 73.0293 56.426 69.4335 57.7549C68.3311 58.1617 67.2048 58.4397 66.0176 58.4058C65.2509 58.3821 64.5419 58.1922 63.8872 57.799C62.9204 57.2193 62.4421 56.3311 62.2691 55.2395C62.1368 54.409 62.2352 53.5852 62.3166 52.7614C62.4421 51.4495 62.6389 50.1376 63.0426 48.8833C63.0697 48.7985 63.0697 48.7239 63.0934 48.5375C62.9442 48.7206 62.8458 48.829 62.7576 48.9443C61.1768 51.002 59.5078 52.9818 57.6387 54.7921C57.1197 55.2938 56.5702 55.7548 55.9087 56.0667C55.0369 56.4769 54.1718 56.4226 53.3102 56.043C52.9031 55.8633 52.6487 55.5345 52.4859 55.1311C52.2281 54.487 52.1636 53.8191 52.201 53.1343C52.2993 51.3139 52.5911 49.524 53.0117 47.751C53.0321 47.6595 53.0456 47.5679 53.0015 47.4391C52.9269 47.551 52.8455 47.6629 52.7742 47.7747C51.7328 49.3986 50.7084 51.0291 49.5279 52.558C48.4491 53.9547 47.3263 55.3175 45.9457 56.4396C45.3079 56.9583 44.6363 57.4024 43.8662 57.7007C43.0249 58.0261 42.1871 57.9956 41.3695 57.6431C40.6945 57.3549 40.2772 56.8091 40.0364 56.1277C39.7345 55.2836 39.6463 54.4056 39.7107 53.5208C39.7955 52.3173 39.8973 51.1173 40.1381 49.9308C40.4129 48.5714 40.7793 47.2425 41.2813 45.9475C41.3254 45.8357 41.3627 45.7204 41.3594 45.5746C41.2915 45.6323 41.2169 45.6865 41.1524 45.7543C39.7413 47.2323 38.3572 48.7341 36.9223 50.1884C34.4799 52.6699 31.7593 54.8734 28.7775 56.6735C26.5488 58.0193 24.2048 59.1347 21.6538 59.7415C19.3539 60.2906 17.0404 60.3313 14.7777 59.5923C11.3685 58.4804 9.23821 56.1514 8.55637 52.6157C8.11199 50.3206 8.50888 48.0832 9.30945 45.9068C9.3739 45.7306 9.44514 45.5543 9.52994 45.3407C9.20429 45.2322 8.8922 45.1237 8.58012 45.022C7.20626 44.5813 5.86971 44.0288 4.61119 43.3304C3.69529 42.8219 2.80652 42.2694 2.00256 41.5947C1.40213 41.0896 0.900079 40.5066 0.621915 39.7574L0.604954 39.7201C0.550678 39.5472 0.537109 39.5133 0.499794 39.3336L0.472656 38.8692C0.499794 38.6624 0.540501 38.4827 0.682975 38.3505C0.754212 38.2827 0.85598 38.1946 0.937393 38.2014C1.53443 38.2386 1.9381 38.598 2.34517 39.0421C1.95846 39.2455 1.6362 38.9675 1.25626 39.059C1.34107 39.2116 1.39195 39.3675 1.49372 39.476C1.78885 39.7913 2.08397 40.1167 2.41641 40.3913C3.2509 41.0761 4.19734 41.588 5.14377 42.0897C6.56512 42.8389 8.05432 43.422 9.5944 43.8796C9.73687 43.9237 9.88274 43.9576 10.0286 43.9881C10.0659 43.9983 10.11 43.9881 10.1643 43.9881C10.1948 43.9542 10.2355 43.9169 10.2593 43.8728C11.9825 40.91 14.235 38.4183 16.9657 36.3572C19.5981 34.3673 22.4205 32.6994 25.504 31.5027C26.9627 30.9366 28.479 30.6688 30.0462 30.7162C31.0571 30.7467 32.0035 31.0111 32.8686 31.5298C33.9507 32.1773 34.5443 33.157 34.7852 34.374C34.965 35.2792 34.8259 36.1572 34.5579 37.0216C34.1101 38.4759 33.296 39.7201 32.2919 40.8456C30.6433 42.6965 28.6011 43.9949 26.3317 44.9407C24.3303 45.7746 22.2339 46.2967 20.073 46.4831C18.9672 46.5781 17.8511 46.5679 16.7385 46.517C14.7947 46.4323 12.8815 46.1441 10.9852 45.7102C10.9072 45.6933 10.8258 45.6831 10.7104 45.6628C10.6155 45.8729 10.5171 46.0797 10.4323 46.2899C9.80811 47.8493 9.51977 49.463 9.62153 51.1444C9.75383 53.3377 10.724 55.1107 12.3557 56.5481C12.5694 56.7345 12.8035 56.9006 13.0307 57.0735C14.062 57.8668 15.2459 58.2465 16.5214 58.4126C19.0554 58.7448 21.4672 58.2702 23.8045 57.3142C25.6804 56.5481 27.4953 55.6531 29.1812 54.5276C31.3794 53.0631 33.4453 51.4359 35.3517 49.6087C37.5024 47.551 39.5343 45.378 41.5188 43.1643C42.7129 41.8321 43.873 40.4625 45.0399 39.1065C45.1654 38.9641 45.2638 38.8963 45.4504 38.9912C45.6438 39.0895 45.888 39.0489 45.9965 39.337C46.1017 39.6048 46.1187 39.8286 45.9728 40.0659C45.7862 40.3642 45.6098 40.6693 45.4097 40.9608C44.3988 42.4253 43.4659 43.9373 42.7841 45.5882C42.0649 47.3273 41.5595 49.124 41.3085 50.9885C41.1999 51.7783 41.1389 52.5784 41.0948 53.375C41.071 53.7784 41.1321 54.1852 41.1592 54.592C41.1931 55.0565 41.4136 55.4429 41.6884 55.8057C41.9089 56.0938 42.1972 56.1887 42.5466 56.1616C43.0826 56.1209 43.5881 55.9752 44.0528 55.704C45.0365 55.1344 45.8982 54.4192 46.6784 53.5954C48.4559 51.7241 49.8841 49.5952 51.2613 47.429C52.4181 45.6085 53.5816 43.7915 54.7451 41.9744C54.8808 41.7609 55.0504 41.571 55.2065 41.3676C55.4677 41.4829 55.7119 41.5439 55.9019 41.6829C56.1767 41.8829 56.214 42.2151 56.1665 42.5236C56.1224 42.8016 56.0138 43.0728 55.9121 43.3372C55.349 44.8051 54.7621 46.2662 54.389 47.7985C54.0226 49.3172 53.7444 50.8495 53.6834 52.4123C53.6664 52.7987 53.6834 53.1852 53.6834 53.5716V53.5886C53.8021 54.592 54.2058 54.6598 54.9317 54.4564C55.6407 54.2564 56.2479 53.8598 56.7567 53.3411C57.7337 52.3445 58.6937 51.3241 59.6334 50.2901C60.3932 49.4528 61.1259 48.5883 61.8214 47.6968C62.683 46.5882 63.4327 45.4017 64.1247 44.1847C64.3825 43.7338 64.6607 43.2931 64.9422 42.8558C65.0745 42.6524 65.2339 42.4694 65.39 42.2626C65.6546 42.405 65.9294 42.4863 66.1125 42.6694C66.35 42.9067 66.3839 43.2491 66.3093 43.5779C66.2686 43.761 66.1906 43.9372 66.1227 44.1135C65.3798 45.995 64.7014 47.8968 64.2468 49.8698C64.006 50.9139 63.8194 51.9682 63.7753 53.0428C63.7617 53.4089 63.7312 53.7751 63.7312 54.1412C63.7312 54.8429 63.972 55.4565 64.3995 56.0023C64.5453 56.1887 64.7387 56.3379 64.9626 56.4193C65.6241 56.66 66.2957 56.626 66.9674 56.5006C68.27 56.2633 69.5048 55.8057 70.7158 55.2836C74.41 53.6835 77.7208 51.48 80.7942 48.8968C82.9482 47.0866 85.0005 45.1678 86.9307 43.1203C87.4904 42.527 88.0298 41.9202 88.576 41.3134C88.6167 41.2693 88.6506 41.2219 88.6845 41.1744C89.0678 40.5879 89.4274 39.9879 89.8209 39.4048C89.9329 39.2387 90.0007 39.076 89.9804 38.876C89.9736 38.8217 89.9804 38.7675 89.9804 38.7132V2.60288H14.4114V34.5707C14.4114 35.2351 14.4046 35.9029 14.4148 36.5674C14.4182 36.7843 14.3673 36.947 14.1943 37.0996C13.6956 37.5369 13.2139 37.9946 12.6881 38.4793C12.6712 38.3776 12.6576 38.3031 12.6508 38.2353C12.6474 38.2014 12.644 38.1641 12.644 38.1302C12.644 25.9194 12.644 13.7085 12.644 1.50113C12.644 1.39604 12.644 1.29095 12.661 1.19264C12.6915 0.972291 12.8849 0.80957 13.1054 0.80957H91.1609C91.5069 0.80957 91.7918 1.08755 91.7918 1.43672V1.46384C91.7918 17.7935 91.7918 34.1232 91.7918 50.4528V50.819C91.205 51.1342 90.6385 51.4393 90.0007 51.7783V42.2863C89.9532 42.2728 89.9566 42.2728 89.9057 42.2592C89.7463 42.5202 89.5665 42.7677 89.4308 43.0389C88.8711 44.1373 88.3114 45.239 87.7754 46.3509C86.3167 49.3816 85.048 52.497 83.7726 55.609C83.742 55.687 83.7318 55.7718 83.7047 55.8904C84.3628 55.5514 84.9734 55.226 85.5908 54.9175C88.2367 53.5954 90.8691 52.2495 93.5354 50.9681C96.4222 49.5782 99.3837 48.3578 102.494 47.5476C103.465 47.2967 104.452 47.1137 105.432 46.9069C106.073 46.7713 106.674 46.9476 107.24 47.2154C107.403 47.29 107.511 47.4968 107.623 47.6595C107.684 47.7442 107.715 47.8459 107.752 47.9442C107.759 48.0493 107.766 48.2019 107.773 48.307V48.2968ZM80.3294 59.9923C80.1836 60.0669 80.1225 60.094 80.0648 60.1279C77.1441 61.8839 74.2675 63.7044 71.5299 65.7418C70.0475 66.8435 68.6092 68.0029 67.2388 69.2369C65.2 71.0743 63.3038 73.054 61.5398 75.1592C59.7826 77.2542 58.1442 79.4239 56.9399 81.8986C56.482 82.841 56.0037 83.7732 55.8748 84.8275C55.7764 85.6377 55.7425 86.4513 56.0715 87.231C56.2852 87.7395 56.655 88.0718 57.1706 88.2413C57.5641 88.3735 57.9712 88.4209 58.3748 88.3463C58.921 88.248 59.4705 88.1497 60.0031 87.9938C63.4123 86.9903 66.1363 84.9733 68.3684 82.2579C69.403 80.9968 70.3427 79.6645 71.2009 78.2814C72.7003 75.8745 74.0911 73.4032 75.4073 70.8912C77.212 67.4537 78.7486 63.8942 80.2141 60.3008C80.2446 60.2296 80.265 60.155 80.3226 59.9889L80.3294 59.9923ZM11.4364 44.3305C11.5755 44.3644 11.6467 44.3847 11.7247 44.3983C13.3123 44.7068 14.9066 44.917 16.5247 44.9882C18.6212 45.0797 20.6972 44.978 22.7461 44.4797C25.3378 43.8457 27.7293 42.7982 29.8563 41.1812C31.1419 40.2048 32.2648 39.0692 33.0416 37.6318C33.4385 36.8996 33.7268 36.1402 33.6827 35.2724C33.6115 33.8655 32.3767 32.4587 30.9757 32.2621C30.0564 32.1332 29.1371 32.1604 28.2212 32.2994C27.1798 32.4553 26.1926 32.7841 25.2258 33.1909C22.9904 34.1333 20.9109 35.3571 18.9197 36.7335C16.3653 38.4963 14.1129 40.5778 12.2709 43.0897C11.9859 43.4796 11.7315 43.8898 11.4398 44.3339L11.4364 44.3305Z" fill="white"/>
<path d="M56.1868 78.1262C56.214 78.1262 56.2411 78.1295 56.2683 78.1329C56.2818 78.1329 56.2954 78.1397 56.3327 78.1533C56.2242 78.4787 55.9833 78.7194 55.8137 79.0042C55.6407 79.2957 55.4914 79.5974 55.3252 79.9059H13.3767C13.3225 79.9059 13.2682 79.9059 13.2139 79.9059C12.756 79.8991 12.6406 79.7906 12.6406 79.3262C12.6406 72.8784 12.6406 66.4306 12.6406 59.9828C12.6406 59.8947 12.6508 59.8032 12.6576 59.6777C13.2546 60.0744 13.8143 60.4473 14.408 60.8439V78.0448L56.1834 78.1329L56.1868 78.1262Z" fill="white"/>
<path d="M73.3242 79.8883C73.6465 79.2747 73.945 78.7153 74.2605 78.1221H89.9869V55.5989C90.5704 55.3141 91.1369 55.0395 91.7543 54.7412C91.7678 54.9005 91.7848 55.0124 91.7848 55.1277C91.7848 63.1755 91.7848 71.2268 91.7916 79.2747C91.7916 79.7527 91.5643 79.912 91.1674 79.912C85.3294 79.9018 79.4879 79.9052 73.6465 79.9052C73.5549 79.9052 73.4599 79.8985 73.3242 79.8917V79.8883Z" fill="white"/>
</g>
<defs>
<clipPath id="clip0_367_436">
<rect width="108" height="90" fill="white" transform="translate(0 0.40332)"/>
</clipPath>
</defs>
</svg>
