<svg width="260" height="70" viewBox="0 0 260 70" fill="none" xmlns="http://www.w3.org/2000/svg">
<g clip-path="url(#clip0_290_1286)">
<path d="M70.3434 43.126C70.2637 43.1791 70.1575 43.2322 70.0778 43.2588V60.5729H58.1545C57.8889 61.0509 57.5968 61.5289 57.3047 61.9803H70.7152C71.14 61.9803 71.4853 61.6351 71.4853 61.2102V42.5684C71.2994 42.648 71.1135 42.7542 70.9276 42.8339L70.3434 43.126Z" fill="black"/>
<path d="M43.3897 60.5995H10.886V46.8969C10.408 46.7376 9.92996 46.5251 9.47852 46.2861V61.2368C9.47852 61.6617 9.82373 62.0069 10.2486 62.0069H42.6196C42.8586 61.5024 43.1242 61.0509 43.3897 60.5995Z" fill="black"/>
<path d="M83.9669 36.9651C83.8607 36.3012 83.0906 36.0888 82.533 36.0888C82.4002 36.0888 82.2674 36.0888 82.1612 36.1153C81.3911 36.2747 80.621 36.4074 79.8509 36.6199C76.9298 37.4165 74.168 38.6115 71.4594 39.9393C70.9814 40.1783 70.5299 40.4173 70.0519 40.6298C68.4055 41.453 66.7856 42.3293 65.1392 43.126C66.4138 39.7003 67.9541 36.3278 69.627 33.0615C69.6536 32.9818 69.8395 32.7162 70.0785 32.3976V33.1411V34.044V39.6472C70.5299 39.4082 71.0079 39.1692 71.4859 38.9568V31.8399V31.0433V29.0516V28.5205V0.770106C71.4859 0.34522 71.1407 0 70.7158 0H10.2492C9.8243 0 9.47908 0.34522 9.47908 0.770106V29.8748C9.93052 29.3703 10.4085 28.9188 10.8865 28.4674V1.40744H70.0785V28.6533V29.3703V30.1138C69.6801 30.698 69.2553 31.3885 69.0694 31.6806C65.1126 36.1419 60.5451 40.2845 55.0216 42.7011C54.1718 43.0463 52.605 43.7367 51.3835 43.7367C50.8524 43.7367 50.4009 43.604 50.0823 43.2587C49.5246 42.5949 49.5246 41.7451 49.6043 40.9484C49.7371 38.5319 50.5603 36.195 51.4366 33.9644C51.7553 33.1942 51.649 32.8225 50.8524 32.5038C49.8167 33.8581 49.1528 35.4515 48.0641 36.7527C46.8425 38.3194 45.4882 39.7534 44.1073 41.1874C43.709 41.5858 43.231 41.9044 42.6733 42.0637C42.514 42.1169 42.3812 42.1434 42.2484 42.1434C41.9298 42.1434 41.7439 41.9575 41.6908 41.3999V41.3733C41.6377 39.8331 41.8767 38.346 42.2484 36.8589C42.5405 35.6639 42.992 34.522 43.4434 33.3536C43.7621 32.5569 43.8418 32.0789 42.8858 31.8134C40.602 34.9735 38.9025 38.5319 36.2204 41.3999C35.6627 42.0106 34.0959 43.4181 33.0072 43.4181C32.7416 43.4181 32.5026 43.3384 32.3167 43.126C32.1043 42.8339 31.9184 42.5417 31.8918 42.17C31.7856 41.2405 31.8918 40.2845 31.9981 39.3551C32.1839 37.8945 32.5823 36.4871 33.1665 35.1328C33.6976 33.8316 34.4412 32.6631 35.2113 31.4947C35.4237 31.0964 35.9017 30.7246 35.6627 30.22C35.583 29.981 35.105 29.8217 35.105 29.8217C32.6885 32.6631 30.033 35.6905 27.3243 38.2663C23.8721 41.4795 18.7469 45.2238 13.7545 45.2238C13.3562 45.2238 12.9578 45.1973 12.5595 45.1442C11.9753 45.0911 11.3911 44.9317 10.86 44.6927C10.3554 44.4803 9.90397 44.1882 9.45253 43.8164C9.39942 43.7633 9.34631 43.7367 9.29319 43.6836C6.74388 41.5858 6.63766 37.9742 7.99198 35.1593C8.46998 35.2656 8.94798 35.3718 9.45253 35.4515C9.90397 35.5311 10.382 35.6108 10.86 35.6639C11.816 35.7967 12.772 35.8498 13.7279 35.8498C15.9586 35.8498 18.1627 35.478 20.234 34.6017C23.0223 33.4332 25.7044 31.3619 26.6604 28.3877C26.8729 27.7238 26.9791 27.0334 26.8463 26.3164C26.448 24.192 24.6422 23.4484 22.7037 23.4484C21.6149 23.4484 20.473 23.6874 19.5701 24.0592C16.3569 25.3604 13.3031 27.2193 10.86 29.6358C10.382 30.1138 9.90397 30.6184 9.45253 31.1495C8.76209 31.9993 8.12476 32.8756 7.5671 33.8316C5.76133 33.4864 1.4328 31.6275 0.583028 29.981C0.636139 29.981 0.662694 29.9545 0.715805 29.9545C0.875137 29.9545 1.03447 30.0076 1.1938 30.0076C1.27347 30.0076 1.35313 29.981 1.4328 29.9545C1.1938 29.6889 0.74236 29.2906 0.39714 29.2906C0.211253 29.2906 0.0253648 29.4234 -0.0277459 29.742C-0.0808567 30.5918 0.476807 31.3619 1.16725 31.9461C2.89335 33.3536 4.96467 34.2299 7.06254 34.8938C5.15056 39.3551 6.39866 43.365 9.45253 45.2769C9.87741 45.5425 10.3554 45.7815 10.86 45.9674C11.7894 46.3126 12.8251 46.4985 13.9404 46.4985C14.7636 46.4985 15.6399 46.3923 16.5694 46.1798C21.2166 44.9848 25.1733 42.0372 28.5193 38.6912C29.7143 37.5228 31.8122 35.1593 31.9981 35.0797C31.9981 35.1593 31.9715 35.2921 31.9449 35.3718C31.5466 36.3809 31.2545 37.4165 31.0421 38.4788C30.8562 39.4082 30.7765 40.3376 30.6968 41.2936C30.6437 41.9841 30.7234 42.6745 30.9624 43.3384C31.2279 44.2678 32.1308 44.7458 33.0337 44.7458C33.3524 44.7458 33.671 44.6927 33.9632 44.56C34.5739 44.321 35.105 43.9757 35.583 43.5774C37.8933 41.6389 39.4867 39.0364 41.1066 36.5137C41.1331 36.6199 41.1331 36.6996 41.1066 36.7527C40.7879 38.1335 40.5489 39.541 40.4692 40.975C40.4427 41.5061 40.4958 42.0372 40.6817 42.5417C40.9472 43.2056 41.6377 43.4977 42.3281 43.4977C42.6999 43.4977 43.0451 43.4181 43.3638 43.2853C43.8683 43.0463 44.3198 42.6745 44.7181 42.2762C46.2849 40.7625 47.6392 39.0895 48.9935 37.39C48.9669 37.5493 48.9669 37.6024 48.9404 37.6556C48.6217 38.6381 48.4624 39.6738 48.3827 40.6829C48.0375 42.9932 48.6483 44.9583 51.2773 45.0911C51.3304 45.0911 51.3835 45.0911 51.4366 45.0911C52.3129 45.0911 53.1361 44.8786 53.9594 44.5865C58.8987 42.8073 63.0679 39.4879 66.8387 35.8763C65.7765 38.5584 63.4927 44.0554 63.4927 44.0554C63.2272 44.2147 60.7841 45.7018 59.6157 46.4454C54.3046 49.7117 49.4449 53.7216 45.6741 58.714C45.2226 59.2982 44.7977 59.909 44.3994 60.5463C44.1073 60.9977 43.8418 61.4757 43.5762 61.9537C43.3106 62.4317 43.0716 62.9363 42.8592 63.4408C42.3812 64.5296 42.1157 65.6715 42.2219 66.893C42.275 68.2739 42.8061 69.9735 45.1164 69.9735C45.3023 69.9735 45.4882 69.9735 45.7006 69.9469C48.5155 69.6282 51.9943 68.1411 55.473 63.2018C55.7651 62.8035 56.0307 62.3786 56.2962 61.9537C56.5883 61.5023 56.8805 61.0243 57.146 60.5463C59.8812 55.9257 62.2446 50.1897 64.1566 45.3566C65.9624 44.4272 68.1134 43.2322 69.9457 42.3293C69.9723 42.3027 70.0254 42.3027 70.0519 42.2762C70.5299 42.0372 70.9814 41.8247 71.4594 41.5858C74.9381 39.8862 78.4965 38.2663 82.3205 37.6024C82.0815 38.2929 82.055 38.585 82.1081 38.8771C82.1346 38.8771 82.1612 38.8771 82.2143 38.8771C83.1172 38.9302 84.0732 37.7618 83.9669 36.9651ZM9.21353 33.1411C9.2932 33.0349 9.37286 32.9287 9.47908 32.7959C9.93052 32.2383 10.382 31.6806 10.8865 31.176C13.2499 28.6798 16.2242 26.7678 19.3842 25.387C20.4996 24.909 21.7211 24.5903 22.9161 24.5903C23.2348 24.5903 23.5534 24.6169 23.8721 24.67C24.9609 24.8293 25.9434 25.9181 25.9965 27.0334C25.9965 28.9188 24.4032 30.5653 22.9958 31.654C20.234 33.7785 16.8084 34.6548 13.3827 34.6548C12.5595 34.6548 11.7097 34.6017 10.8865 34.4955C10.4085 34.4423 9.95708 34.3627 9.47908 34.283C9.18697 34.2299 8.86831 34.1768 8.5762 34.0971C8.8152 33.7785 9.00109 33.4332 9.21353 33.1411ZM62.4305 46.6313C60.492 51.4644 58.2082 56.1647 55.4465 60.5994C55.4199 60.6525 55.3933 60.6791 55.3668 60.7322C55.1012 61.1571 54.8357 61.582 54.5436 62.0068C52.5785 64.8748 50.0557 67.371 46.6035 68.327C46.099 68.4598 45.5679 68.6191 45.0368 68.6191C44.8243 68.6191 44.6119 68.5926 44.3994 68.5129C43.3106 68.1677 43.2575 66.7868 43.3903 65.8308C43.4965 65.0076 43.8683 64.2641 44.2135 63.5471C44.4791 63.016 44.7712 62.4848 45.0633 61.9803C45.3554 61.5023 45.6741 61.0243 45.9927 60.5729C46.5504 59.7762 47.1877 59.0061 47.7985 58.236C51.8349 53.3232 57.0398 49.5258 62.5102 46.3657C62.4571 46.4985 62.4305 46.5782 62.4305 46.6313Z" fill="black"/>
<path d="M102.026 16.8628C102.743 16.8628 104.018 16.9159 104.947 17.6595C105.346 17.9781 106.089 18.7482 106.089 20.2884C106.089 20.9258 105.957 22.0411 104.815 22.7846C106.594 23.2361 107.231 24.7763 107.231 25.9978C107.231 27.2194 106.62 28.2285 105.93 28.7596C104.921 29.5563 103.752 29.6094 102.876 29.6094H99.6895V16.8628H102.026ZM101.15 22.466H102.212C102.956 22.466 104.708 22.3066 104.708 20.3415C104.708 18.2437 102.637 18.1906 102.239 18.1906H101.123V22.466H101.15ZM101.15 28.2816H102.77C103.593 28.2816 104.39 28.2285 105.001 27.7505C105.505 27.3787 105.85 26.768 105.85 25.9978C105.85 24.9887 105.266 24.4045 104.762 24.1124C104.284 23.8469 103.62 23.7406 102.611 23.7406H101.15V28.2816Z" fill="black"/>
<path d="M118.065 18.2174H112.861V22.0148H117.906V23.3426H112.861V28.3085H118.065V29.6362H111.453V16.8896H118.065V18.2174Z" fill="black"/>
<path d="M129.671 26.0243H124.253L122.713 29.6093H121.146L127.015 16.252L132.725 29.6093H131.158L129.671 26.0243ZM129.113 24.6966L126.962 19.5979L124.785 24.6966H129.113Z" fill="black"/>
<path d="M136.999 24.6966C136.999 25.7588 136.999 26.9273 138.008 27.8036C138.513 28.255 139.416 28.5206 140.106 28.5206C140.797 28.5206 141.7 28.2285 142.204 27.8036C143.213 26.9538 143.213 25.7854 143.213 24.6966V16.8628H144.621V25.0684C144.621 26.1306 144.514 27.1663 143.824 28.1223C143.054 29.1845 141.726 29.8484 140.106 29.8484C138.486 29.8484 137.132 29.1845 136.388 28.1223C135.698 27.1663 135.592 26.1306 135.592 25.0684V16.8628H136.999V24.6966Z" fill="black"/>
<path d="M152.589 18.2169V29.6357H151.181V18.2169H148.074V16.8892H155.696V18.2169H152.589Z" fill="black"/>
<path d="M162.625 24.139L158.43 16.8628H160.076L163.342 22.5722L166.635 16.8628H168.282L164.059 24.139V29.6359H162.652V24.139H162.625Z" fill="black"/>
<path d="M184.96 18.2169H179.755V22.0144H184.801V23.3421H179.755V28.308H184.96V29.6357H178.348V16.8892H184.96V18.2169Z" fill="black"/>
<path d="M194.519 19.3856C194.36 19.0404 194.068 18.6686 193.775 18.4296C193.536 18.2437 193.058 17.9782 192.341 17.9782C191.067 17.9782 190.19 18.7748 190.19 19.9433C190.19 20.4478 190.323 20.7399 190.668 21.0586C191.04 21.4304 191.518 21.6428 191.996 21.8552L193.218 22.3864C193.961 22.705 194.652 23.0502 195.183 23.5813C195.82 24.2187 196.112 24.9888 196.112 25.8917C196.112 28.2551 194.36 29.8219 192.076 29.8219C191.226 29.8219 190.19 29.6625 189.314 28.7862C188.677 28.1754 188.305 27.2991 188.119 26.529L189.5 26.1572C189.606 26.8211 189.898 27.4053 190.27 27.7771C190.828 28.3348 191.465 28.4941 192.102 28.4941C193.855 28.4941 194.652 27.246 194.652 25.9713C194.652 25.3871 194.492 24.9091 194.014 24.4842C193.643 24.139 193.165 23.9 192.474 23.6079L191.332 23.0768C190.828 22.8378 190.217 22.5722 189.633 22.0146C189.075 21.4835 188.756 20.8993 188.756 19.9433C188.756 17.9782 190.27 16.6504 192.341 16.6504C193.138 16.6504 193.749 16.8097 194.386 17.2346C194.891 17.5798 195.342 18.0844 195.634 18.642L194.519 19.3856Z" fill="black"/>
<path d="M203.415 18.2169V29.6357H202.007V18.2169H198.9V16.8892H206.522V18.2169H203.415Z" fill="black"/>
<path d="M216.558 18.2169H211.38V22.0144H216.426V23.3421H211.38V28.308H216.585V29.6357H209.973V16.8892H216.585V18.2169H216.558Z" fill="black"/>
<path d="M224.208 18.2174V29.6362H222.8V18.2174H219.693V16.8896H227.315V18.2174H224.208Z" fill="black"/>
<path d="M232.148 16.8628V29.6094H230.74V16.8628H232.148Z" fill="black"/>
<path d="M246.834 19.6777C246.436 19.2794 245.825 18.8014 245.161 18.4827C244.497 18.164 243.7 17.9782 242.957 17.9782C240.009 17.9782 237.832 20.3416 237.832 23.2892C237.832 26.7414 240.647 28.4941 242.983 28.4941C243.833 28.4941 244.683 28.2551 245.347 27.9099C246.064 27.5381 246.595 27.0601 246.807 26.8477V28.6003C245.4 29.6094 243.913 29.8484 242.957 29.8484C239.159 29.8484 236.371 26.9804 236.371 23.2892C236.371 19.4918 239.213 16.6504 243.037 16.6504C243.807 16.6504 245.267 16.7566 246.807 17.925V19.6777H246.834Z" fill="black"/>
<path d="M256.658 19.3856C256.498 19.0404 256.206 18.6686 255.914 18.4296C255.675 18.2437 255.197 17.9782 254.48 17.9782C253.205 17.9782 252.329 18.7748 252.329 19.9433C252.329 20.4478 252.462 20.7399 252.807 21.0586C253.179 21.4304 253.657 21.6428 254.135 21.8552L255.356 22.3864C256.1 22.705 256.79 23.0502 257.322 23.5813C257.959 24.2187 258.251 24.9888 258.251 25.8917C258.251 28.2551 256.498 29.8219 254.215 29.8219C253.365 29.8219 252.329 29.6625 251.453 28.7862C250.815 28.1754 250.444 27.2991 250.258 26.529L251.639 26.1572C251.745 26.8211 252.037 27.4053 252.409 27.7771C252.966 28.3348 253.604 28.4941 254.241 28.4941C255.994 28.4941 256.79 27.246 256.79 25.9713C256.79 25.3871 256.631 24.9091 256.153 24.4842C255.781 24.139 255.303 23.9 254.613 23.6079L253.471 23.0768C252.966 22.8378 252.356 22.5722 251.771 22.0146C251.214 21.4835 250.895 20.8993 250.895 19.9433C250.895 17.9782 252.409 16.6504 254.48 16.6504C255.277 16.6504 255.888 16.8097 256.525 17.2346C257.029 17.5798 257.481 18.0844 257.773 18.642L256.658 19.3856Z" fill="black"/>
<path d="M104.389 38.9566C104.336 38.7442 104.204 38.5583 104.044 38.4255C103.832 38.2662 103.513 38.2131 103.301 38.2131C102.849 38.2131 102.584 38.3724 102.424 38.5052C102.239 38.6645 102.106 38.9035 102.106 39.1956C102.106 39.4612 102.212 39.6205 102.371 39.7799C102.61 39.9923 102.823 40.0454 103.115 40.1782L103.726 40.4437C104.204 40.6562 104.522 40.9217 104.682 41.1342C105 41.506 105.08 41.9043 105.08 42.3823C105.08 43.2586 104.761 43.8428 104.389 44.2677C103.779 44.9051 103.009 45.0378 102.398 45.0378C101.787 45.0378 101.283 44.9051 100.858 44.5067C100.486 44.1349 100.167 43.5242 100.141 42.7806L101.309 42.5416C101.309 42.8337 101.362 43.2852 101.575 43.5773C101.761 43.8163 102.053 43.9756 102.557 43.9756C102.955 43.9756 103.248 43.8428 103.46 43.6569C103.752 43.3914 103.885 42.9134 103.885 42.5416C103.885 42.223 103.779 42.0105 103.593 41.8246C103.38 41.5856 103.062 41.4529 102.823 41.3466L102.238 41.0811C101.973 40.9483 101.601 40.7624 101.336 40.4703C101.097 40.2047 100.911 39.8064 100.911 39.355C100.911 39.2488 100.911 38.5318 101.522 37.8944C101.92 37.4695 102.531 37.1509 103.327 37.1509C103.699 37.1509 104.204 37.204 104.628 37.4961C105.027 37.7617 105.239 38.1334 105.345 38.4255L104.389 38.9566Z" fill="black"/>
<path d="M109.541 37.2568L108.612 44.8782H107.443L108.373 37.2568H109.541Z" fill="black"/>
<path d="M111.666 44.8784L112.649 36.7524L117.455 42.5415L118.119 37.257H119.287L118.305 45.3298L113.472 39.5673L112.808 44.8784H111.666Z" fill="black"/>
<path d="M127.732 39.0362C127.015 38.3192 126.139 38.1864 125.634 38.1864C124.837 38.1864 124.094 38.452 123.563 38.9565C123.005 39.4876 122.607 40.3905 122.607 41.4262C122.607 42.2494 122.899 42.8336 123.271 43.2319C123.696 43.7099 124.28 43.9489 125.076 43.9489C126.085 43.9489 126.829 43.4178 127.227 43.0726L127.068 44.4535C126.139 44.958 125.501 45.0112 124.97 45.0112C124.067 45.0112 123.218 44.8253 122.474 44.0552C121.81 43.3913 121.465 42.5415 121.465 41.4262C121.465 40.0187 121.996 38.9831 122.713 38.2661C123.536 37.4429 124.572 37.0977 125.74 37.0977C126.431 37.0977 127.095 37.257 127.918 37.6553L127.732 39.0362Z" fill="black"/>
<path d="M134.69 38.3722H131.662L131.423 40.3107H134.371L134.238 41.3995H131.291L130.998 43.7895H134.026L133.893 44.8782H129.697L130.627 37.2568H134.822L134.69 38.3722Z" fill="black"/>
<path d="M144.94 44.8785H139.814L142.842 41.6919C143.373 41.1342 143.665 40.8155 143.904 40.55C144.196 40.2047 144.462 39.8064 144.462 39.3019C144.462 38.877 144.249 38.6114 144.09 38.4786C143.931 38.3459 143.665 38.1865 143.214 38.1865C142.736 38.1865 142.443 38.3724 142.284 38.5318C142.045 38.7708 141.859 39.1956 141.806 39.5674H140.691C140.77 38.9301 141.063 38.2928 141.434 37.8944C142.019 37.2571 142.736 37.1509 143.293 37.1509C143.798 37.1509 144.462 37.2305 144.993 37.7085C145.338 38.0272 145.63 38.4786 145.63 39.1691C145.63 39.8595 145.365 40.3906 144.993 40.8686C144.674 41.2935 143.877 42.1433 143.612 42.4088L142.258 43.8163H145.099L144.94 44.8785Z" fill="black"/>
<path d="M148.072 44.294C147.435 43.5504 147.355 42.5413 147.355 41.9571C147.355 40.7621 147.648 38.9829 148.736 37.8941C149.267 37.363 149.852 37.124 150.569 37.124C151.1 37.124 151.578 37.2834 151.976 37.6817C152.72 38.3987 152.826 39.4343 152.826 40.1248C152.826 42.1164 152.295 43.3911 151.472 44.2143C150.887 44.7985 150.383 44.9844 149.639 44.9844C148.949 45.011 148.471 44.7985 148.072 44.294ZM149.506 38.5846C148.869 39.2485 148.497 40.6824 148.497 41.8774C148.497 42.4351 148.55 43.2318 149.028 43.7098C149.241 43.9222 149.453 43.9753 149.719 43.9753C150.091 43.9753 150.383 43.8691 150.648 43.577C151.392 42.8069 151.684 41.2667 151.684 40.3107C151.684 39.8592 151.631 38.9032 151.126 38.4252C150.914 38.2393 150.701 38.1862 150.436 38.1862C150.038 38.1597 149.745 38.319 149.506 38.5846Z" fill="black"/>
<path d="M155.375 44.294C154.738 43.5504 154.658 42.5413 154.658 41.9571C154.658 40.7621 154.95 38.9829 156.039 37.8941C156.57 37.363 157.154 37.124 157.871 37.124C158.403 37.124 158.88 37.2834 159.279 37.6817C160.022 38.3987 160.129 39.4343 160.129 40.1248C160.129 42.1164 159.598 43.3911 158.774 44.2143C158.19 44.7985 157.686 44.9844 156.942 44.9844C156.252 45.011 155.8 44.7985 155.375 44.294ZM156.836 38.5846C156.198 39.2485 155.827 40.6824 155.827 41.8774C155.827 42.4351 155.88 43.2318 156.358 43.7098C156.57 43.9222 156.783 43.9753 157.048 43.9753C157.42 43.9753 157.712 43.8691 157.978 43.577C158.721 42.8069 159.013 41.2667 159.013 40.3107C159.013 39.8592 158.96 38.9032 158.456 38.4252C158.243 38.2393 158.031 38.1862 157.765 38.1862C157.367 38.1597 157.075 38.319 156.836 38.5846Z" fill="black"/>
<path d="M162.306 39.1953C162.386 38.6908 162.625 38.1331 162.97 37.7879C163.501 37.2037 164.192 37.124 164.723 37.124C165.095 37.124 165.785 37.1771 166.316 37.6817C166.635 37.9738 166.847 38.4252 166.847 39.0626C166.847 39.4875 166.741 39.9123 166.529 40.2044C166.263 40.6293 165.891 40.8152 165.706 40.8683C165.945 40.9746 166.157 41.1604 166.343 41.426C166.529 41.7447 166.582 42.0368 166.582 42.3554C166.582 43.3114 166.237 43.9222 165.865 44.294C165.254 44.9048 164.537 44.9579 163.979 44.9579C163.369 44.9579 162.784 44.8782 162.28 44.3471C161.935 43.9753 161.669 43.4176 161.643 42.7538H162.758C162.758 43.0724 162.891 43.4176 163.103 43.6035C163.369 43.8691 163.714 43.9222 164.006 43.9222C164.298 43.9222 164.67 43.8956 164.989 43.577C165.121 43.4442 165.413 43.099 165.413 42.4085C165.413 42.1961 165.387 41.7181 164.962 41.4526C164.882 41.3994 164.643 41.2667 164.139 41.2667H163.979L164.112 40.2841H164.351C164.67 40.2841 165.095 40.2576 165.387 39.9654C165.599 39.753 165.706 39.3812 165.706 39.0891C165.706 38.7439 165.546 38.4518 165.36 38.2925C165.121 38.08 164.803 38.0535 164.617 38.0535C164.378 38.0535 164.059 38.08 163.794 38.319C163.767 38.3456 163.475 38.6111 163.395 39.0891H162.306V39.1953Z" fill="black"/>
</g>
<defs>
<clipPath id="clip0_290_1286">
<rect width="259.234" height="70" fill="white"/>
</clipPath>
</defs>
</svg>
