<svg width="212" height="11" viewBox="0 0 212 11" fill="none" xmlns="http://www.w3.org/2000/svg">
<g clip-path="url(#clip0_314_360)">
<path d="M207.043 4.72021L1.17188 4.72021L1.17188 5.72021L207.043 5.72021V4.72021Z" fill="#004E9D"/>
<path d="M105.541 2.29481L104.106 0.100098L102.671 2.29481C102.369 2.75641 102.428 3.37328 102.81 3.76774L104.102 5.098L105.395 3.76774C105.776 3.37328 105.835 2.75641 105.533 2.29481H105.541Z" fill="#004E9D"/>
<path d="M102.676 7.90573L104.112 10.1004L105.547 7.90573C105.849 7.44413 105.79 6.82726 105.408 6.4328L104.116 5.10254L102.823 6.4328C102.441 6.82726 102.383 7.44413 102.685 7.90573H102.676Z" fill="#004E9D"/>
<path d="M98.9403 2.72681L96.8967 4.8292L95.835 3.73394C95.5916 3.48216 95.2517 3.51573 95.0377 3.80947C94.6474 4.34242 95.0209 5.09777 95.6755 5.09777C95.0209 5.09777 94.6474 5.85312 95.0377 6.38606C95.2517 6.67981 95.5958 6.71338 95.835 6.46159L96.8967 5.36634L98.9403 7.46873C99.4649 8.01006 100.296 8.06881 100.887 7.60721L104.106 5.09777L100.887 2.58832C100.296 2.12672 99.4649 2.18547 98.9403 2.72681Z" fill="#004E9D"/>
<path d="M112.548 5.09825C113.249 5.09825 113.602 4.24219 113.111 3.73443C112.867 3.48264 112.527 3.51622 112.313 3.80996L111.457 4.97236L109.275 2.72729C108.751 2.18596 107.92 2.12721 107.328 2.58881L104.109 5.09825L107.328 7.6077C107.92 8.0693 108.751 8.01055 109.275 7.46922L111.457 5.22415L112.313 6.38655C112.527 6.68029 112.871 6.71387 113.111 6.46208C113.602 5.95432 113.249 5.09825 112.548 5.09825Z" fill="#004E9D"/>
<path d="M131.188 3.72174L130.483 2.64746L129.778 3.72174C129.631 3.94834 129.657 4.25048 129.845 4.44352L130.479 5.09815L131.113 4.44352C131.302 4.25048 131.331 3.94834 131.18 3.72174H131.188Z" fill="#004E9D"/>
<path d="M129.781 6.47456L130.486 7.54884L131.191 6.47456C131.338 6.24796 131.313 5.94582 131.124 5.75278L130.491 5.09814L129.857 5.75278C129.668 5.94582 129.639 6.24796 129.79 6.47456H129.781Z" fill="#004E9D"/>
<path d="M133.023 3.93577C132.767 3.6714 132.356 3.64203 132.066 3.86863L130.484 5.09817L132.066 6.32772C132.356 6.55432 132.763 6.52495 133.023 6.26057L134.156 5.09817L133.023 3.93577Z" fill="#004E9D"/>
<path d="M127.947 3.93577L126.814 5.09817L127.947 6.26057C128.203 6.52495 128.615 6.55432 128.904 6.32772L130.486 5.09817L128.904 3.86863C128.615 3.64203 128.208 3.6714 127.947 3.93577Z" fill="#004E9D"/>
<path d="M78.4344 3.72174L77.7294 2.64746L77.0244 3.72174C76.8775 3.94834 76.9027 4.25048 77.0915 4.44352L77.7252 5.09815L78.3588 4.44352C78.5477 4.25048 78.5771 3.94834 78.426 3.72174H78.4344Z" fill="#004E9D"/>
<path d="M77.0295 6.47456L77.7345 7.54884L78.4395 6.47456C78.5863 6.24796 78.5612 5.94582 78.3723 5.75278L77.7387 5.09814L77.105 5.75278C76.9162 5.94582 76.8868 6.24796 77.0379 6.47456H77.0295Z" fill="#004E9D"/>
<path d="M79.3125 3.86863L77.7305 5.09817L79.3125 6.32772C79.6021 6.55432 80.0091 6.52495 80.2693 6.26057L81.4023 5.09817L80.2693 3.93577C80.0133 3.6714 79.6021 3.64203 79.3125 3.86863Z" fill="#004E9D"/>
<path d="M75.1955 3.93577L74.0625 5.09817L75.1955 6.26057C75.4515 6.52495 75.8627 6.55432 76.1523 6.32772L77.7343 5.09817L76.1523 3.86863C75.8627 3.64203 75.4557 3.6714 75.1955 3.93577Z" fill="#004E9D"/>
<path d="M206.178 5.10628L208.205 2.34506C208.666 1.7156 209.396 1.64846 209.917 2.18559C210.97 3.27246 210.21 5.10628 208.712 5.10628H206.182H206.178Z" fill="#004E9D"/>
<path d="M206.178 5.10645L208.205 7.86767C208.666 8.49713 209.396 8.56427 209.917 8.02713C210.97 6.94027 210.21 5.10645 208.712 5.10645H206.182H206.178Z" fill="#004E9D"/>
<path d="M3.8222 5.10628L1.79534 2.34506C1.33374 1.7156 0.603567 1.64846 0.0832144 2.18559C-0.97008 3.27246 -0.210533 5.10628 1.28758 5.10628H3.818H3.8222Z" fill="#004E9D"/>
<path d="M3.8222 5.10645L1.79534 7.86767C1.33374 8.49713 0.603567 8.56427 0.0832144 8.02713C-0.97008 6.94027 -0.210533 5.10645 1.28758 5.10645L3.818 5.10645H3.8222Z" fill="#004E9D"/>
</g>
<defs>
<clipPath id="clip0_314_360">
<rect width="210.806" height="10" fill="white" transform="translate(0.597656 0.100098)"/>
</clipPath>
</defs>
</svg>
