<svg width="12" height="14" viewBox="0 0 12 14" fill="none" xmlns="http://www.w3.org/2000/svg">
<path d="M0.0625 12.5063V5.6001H11.4375V12.5063C11.4375 13.1919 10.8789 13.7251 10.2188 13.7251H1.28125C0.595703 13.7251 0.0625 13.1919 0.0625 12.5063ZM8.1875 7.52979V8.54541C8.1875 8.72314 8.31445 8.8501 8.49219 8.8501H9.50781C9.66016 8.8501 9.8125 8.72314 9.8125 8.54541V7.52979C9.8125 7.37744 9.66016 7.2251 9.50781 7.2251H8.49219C8.31445 7.2251 8.1875 7.37744 8.1875 7.52979ZM8.1875 10.7798V11.7954C8.1875 11.9731 8.31445 12.1001 8.49219 12.1001H9.50781C9.66016 12.1001 9.8125 11.9731 9.8125 11.7954V10.7798C9.8125 10.6274 9.66016 10.4751 9.50781 10.4751H8.49219C8.31445 10.4751 8.1875 10.6274 8.1875 10.7798ZM4.9375 7.52979V8.54541C4.9375 8.72314 5.06445 8.8501 5.24219 8.8501H6.25781C6.41016 8.8501 6.5625 8.72314 6.5625 8.54541V7.52979C6.5625 7.37744 6.41016 7.2251 6.25781 7.2251H5.24219C5.06445 7.2251 4.9375 7.37744 4.9375 7.52979ZM4.9375 10.7798V11.7954C4.9375 11.9731 5.06445 12.1001 5.24219 12.1001H6.25781C6.41016 12.1001 6.5625 11.9731 6.5625 11.7954V10.7798C6.5625 10.6274 6.41016 10.4751 6.25781 10.4751H5.24219C5.06445 10.4751 4.9375 10.6274 4.9375 10.7798ZM1.6875 7.52979V8.54541C1.6875 8.72314 1.81445 8.8501 1.99219 8.8501H3.00781C3.16016 8.8501 3.3125 8.72314 3.3125 8.54541V7.52979C3.3125 7.37744 3.16016 7.2251 3.00781 7.2251H1.99219C1.81445 7.2251 1.6875 7.37744 1.6875 7.52979ZM1.6875 10.7798V11.7954C1.6875 11.9731 1.81445 12.1001 1.99219 12.1001H3.00781C3.16016 12.1001 3.3125 11.9731 3.3125 11.7954V10.7798C3.3125 10.6274 3.16016 10.4751 3.00781 10.4751H1.99219C1.81445 10.4751 1.6875 10.6274 1.6875 10.7798ZM10.2188 2.3501C10.8789 2.3501 11.4375 2.90869 11.4375 3.56885V4.7876H0.0625V3.56885C0.0625 2.90869 0.595703 2.3501 1.28125 2.3501H2.5V1.13135C2.5 0.928223 2.67773 0.725098 2.90625 0.725098H3.71875C3.92188 0.725098 4.125 0.928223 4.125 1.13135V2.3501H7.375V1.13135C7.375 0.928223 7.55273 0.725098 7.78125 0.725098H8.59375C8.79688 0.725098 9 0.928223 9 1.13135V2.3501H10.2188Z" fill="#8C6831"/>
</svg>
