<svg width="13" height="14" viewBox="0 0 13 14" fill="none" xmlns="http://www.w3.org/2000/svg">
<path d="M0.8125 12.4062V5.5H12.1875V12.4062C12.1875 13.0918 11.6289 13.625 10.9688 13.625H2.03125C1.3457 13.625 0.8125 13.0918 0.8125 12.4062ZM8.9375 7.42969V8.44531C8.9375 8.62305 9.06445 8.75 9.24219 8.75H10.2578C10.4102 8.75 10.5625 8.62305 10.5625 8.44531V7.42969C10.5625 7.27734 10.4102 7.125 10.2578 7.125H9.24219C9.06445 7.125 8.9375 7.27734 8.9375 7.42969ZM8.9375 10.6797V11.6953C8.9375 11.873 9.06445 12 9.24219 12H10.2578C10.4102 12 10.5625 11.873 10.5625 11.6953V10.6797C10.5625 10.5273 10.4102 10.375 10.2578 10.375H9.24219C9.06445 10.375 8.9375 10.5273 8.9375 10.6797ZM5.6875 7.42969V8.44531C5.6875 8.62305 5.81445 8.75 5.99219 8.75H7.00781C7.16016 8.75 7.3125 8.62305 7.3125 8.44531V7.42969C7.3125 7.27734 7.16016 7.125 7.00781 7.125H5.99219C5.81445 7.125 5.6875 7.27734 5.6875 7.42969ZM5.6875 10.6797V11.6953C5.6875 11.873 5.81445 12 5.99219 12H7.00781C7.16016 12 7.3125 11.873 7.3125 11.6953V10.6797C7.3125 10.5273 7.16016 10.375 7.00781 10.375H5.99219C5.81445 10.375 5.6875 10.5273 5.6875 10.6797ZM2.4375 7.42969V8.44531C2.4375 8.62305 2.56445 8.75 2.74219 8.75H3.75781C3.91016 8.75 4.0625 8.62305 4.0625 8.44531V7.42969C4.0625 7.27734 3.91016 7.125 3.75781 7.125H2.74219C2.56445 7.125 2.4375 7.27734 2.4375 7.42969ZM2.4375 10.6797V11.6953C2.4375 11.873 2.56445 12 2.74219 12H3.75781C3.91016 12 4.0625 11.873 4.0625 11.6953V10.6797C4.0625 10.5273 3.91016 10.375 3.75781 10.375H2.74219C2.56445 10.375 2.4375 10.5273 2.4375 10.6797ZM10.9688 2.25C11.6289 2.25 12.1875 2.80859 12.1875 3.46875V4.6875H0.8125V3.46875C0.8125 2.80859 1.3457 2.25 2.03125 2.25H3.25V1.03125C3.25 0.828125 3.42773 0.625 3.65625 0.625H4.46875C4.67188 0.625 4.875 0.828125 4.875 1.03125V2.25H8.125V1.03125C8.125 0.828125 8.30273 0.625 8.53125 0.625H9.34375C9.54688 0.625 9.75 0.828125 9.75 1.03125V2.25H10.9688Z" fill="white"/>
</svg>
