<svg width="16" height="10" viewBox="0 0 16 10" fill="none" xmlns="http://www.w3.org/2000/svg">
<path d="M15.2109 4.76953C15.2617 4.87109 15.2871 4.99805 15.2871 5.15039C15.2871 5.27734 15.2617 5.4043 15.2109 5.50586C13.8398 8.19727 11.0977 10 8 10C4.87695 10 2.13477 8.19727 0.763672 5.50586C0.712891 5.4043 0.6875 5.27734 0.6875 5.125C0.6875 4.99805 0.712891 4.87109 0.763672 4.76953C2.13477 2.07812 4.87695 0.25 8 0.25C11.0977 0.25 13.8398 2.07812 15.2109 4.76953ZM8 8.78125V8.80664C10.0059 8.80664 11.6562 7.15625 11.6562 5.15039V5.125C11.6562 3.11914 10.0059 1.46875 8 1.46875C5.96875 1.46875 4.34375 3.11914 4.34375 5.125C4.34375 7.15625 5.96875 8.78125 8 8.78125ZM8 2.6875V2.71289C9.3457 2.71289 10.4375 3.7793 10.4375 5.125C10.4375 6.4707 9.3457 7.5625 8 7.5625C6.6543 7.5625 5.5625 6.4707 5.5625 5.125C5.5625 4.92188 5.58789 4.69336 5.63867 4.49023C5.8418 4.64258 6.0957 4.71875 6.375 4.71875C7.03516 4.71875 7.56836 4.18555 7.56836 3.52539C7.56836 3.24609 7.49219 2.99219 7.33984 2.78906C7.54297 2.73828 7.77148 2.71289 8 2.6875Z" fill="white"/>
</svg>
