<svg width="8" height="14" viewBox="0 0 8 14" fill="none" xmlns="http://www.w3.org/2000/svg">
<path d="M3.4375 8.67383C3.69141 8.72461 3.9707 8.75 4.25 8.75C4.50391 8.75 4.7832 8.72461 5.0625 8.67383V12.6602L4.47852 13.498C4.37695 13.6758 4.09766 13.6758 3.99609 13.498L3.4375 12.6602V8.67383ZM4.25 0.625C6.25586 0.625 7.90625 2.27539 7.90625 4.28125C7.90625 6.3125 6.25586 7.9375 4.25 7.9375C2.21875 7.9375 0.59375 6.3125 0.59375 4.28125C0.59375 2.27539 2.21875 0.625 4.25 0.625ZM4.25 2.55469C4.40234 2.55469 4.55469 2.42773 4.55469 2.25C4.55469 2.09766 4.40234 1.94531 4.25 1.94531C2.95508 1.94531 1.91406 3.01172 1.91406 4.28125C1.91406 4.45898 2.04102 4.58594 2.21875 4.58594C2.37109 4.58594 2.52344 4.45898 2.52344 4.28125C2.52344 3.3418 3.28516 2.55469 4.25 2.55469Z" fill="white"/>
</svg>
